<svg width="20" height="20" viewBox="0 0 20 20" fill="none" xmlns="http://www.w3.org/2000/svg">
<g clip-path="url(#clip0_401_1057)">
<path d="M19.4182 9.70909C19.4182 4.34633 15.0718 0 9.70909 0C4.34633 0 0 4.34633 0 9.70909C0 14.556 3.54989 18.5724 8.19204 19.3006V12.5156H5.72684V9.70909H8.19204V7.57005C8.19204 5.13709 9.64082 3.79261 11.8595 3.79261C12.9214 3.79261 14.0327 3.98224 14.0327 3.98224V6.37159H12.8077C11.6016 6.37159 11.2261 7.12063 11.2261 7.88863V9.70909H13.9189L13.4884 12.5156H11.2261V19.3006C15.8683 18.5724 19.4182 14.556 19.4182 9.70909Z" fill="#162666"/>
<path d="M13.4884 12.5157L13.9188 9.7092H11.2261V7.88875C11.2261 7.12074 11.6016 6.3717 12.8076 6.3717H14.0326V3.98236C14.0326 3.98236 12.9214 3.79272 11.8595 3.79272C9.64078 3.79272 8.192 5.13721 8.192 7.57017V9.7092H5.72681V12.5157H8.192V19.3007C8.68694 19.3785 9.19325 19.4183 9.70905 19.4183C10.2248 19.4183 10.7312 19.3785 11.2261 19.3007V12.5157H13.4884Z" fill="white"/>
</g>
<defs>
<clipPath id="clip0_401_1057">
<rect width="19.4182" height="19.4182" fill="white"/>
</clipPath>
</defs>
</svg>
