<svg width="20" height="20" viewBox="0 0 20 20" fill="none" xmlns="http://www.w3.org/2000/svg">
<g clip-path="url(#clip0_401_1058)">
<path d="M10.1273 1.73954C12.7164 1.73954 13.04 1.73954 14.0514 1.78C14.9818 1.86091 15.5078 2.02273 15.8718 2.14409C16.3168 2.30591 16.6405 2.54864 17.0046 2.87227C17.3282 3.19591 17.5709 3.51954 17.7328 4.005C17.8541 4.32863 18.0159 4.85454 18.0564 5.82545C18.0968 6.83682 18.0968 7.16045 18.0968 9.74954C18.0968 12.3386 18.0968 12.6623 18.0564 13.6736C18.0159 14.6041 17.8541 15.13 17.7328 15.4941C17.5709 15.9391 17.3282 16.2627 17.0046 16.6268C16.6809 16.9504 16.3573 17.1932 15.8718 17.355C15.5482 17.4764 15.0223 17.6382 14.0514 17.6786C13.04 17.7191 12.7164 17.7191 10.1273 17.7191C7.53821 17.7191 7.21457 17.7191 6.20321 17.6786C5.27276 17.6382 4.74685 17.4764 4.38276 17.355C3.93776 17.1932 3.61412 16.9504 3.25003 16.6268C2.92639 16.3032 2.68367 15.9795 2.52185 15.4941C2.44094 15.0895 2.27912 14.5636 2.23867 13.6332C2.19821 12.6218 2.19821 12.2982 2.19821 9.70909C2.19821 7.12 2.19821 6.79636 2.23867 5.785C2.27912 4.85454 2.44094 4.32863 2.5623 3.96454C2.72412 3.51954 2.96685 3.19591 3.29048 2.83182C3.61412 2.50818 3.93776 2.26545 4.42321 2.10364C4.74685 2.02273 5.27276 1.86091 6.20321 1.82045C7.21457 1.73954 7.53821 1.73954 10.1273 1.73954ZM10.1273 0C7.49776 0 7.17412 0 6.1223 0.0404545C5.07048 0.0809091 4.38276 0.242727 3.77594 0.485454C3.12867 0.768636 2.60276 1.09227 2.03639 1.61818C1.51049 2.18454 1.18685 2.71045 0.944122 3.35773C0.701395 3.96454 0.539576 4.69273 0.499122 5.70409C0.418213 6.75591 0.418213 7.07954 0.418213 9.70909C0.418213 12.3386 0.418213 12.6623 0.458667 13.7141C0.499122 14.7659 0.66094 15.4536 0.903667 16.0604C1.18685 16.7077 1.51049 17.2336 2.03639 17.8C2.5623 18.3259 3.12867 18.69 3.77594 18.9327C4.38276 19.1754 5.11094 19.3373 6.1223 19.3777C7.17412 19.4182 7.49776 19.4182 10.1273 19.4182C12.7568 19.4182 13.0805 19.4182 14.1323 19.3777C15.1841 19.3373 15.8718 19.1754 16.4787 18.9327C17.1259 18.69 17.6518 18.3664 18.2182 17.8C18.7441 17.2741 19.1082 16.7077 19.3509 16.0604C19.5937 15.4536 19.7555 14.7254 19.7959 13.7141C19.8364 12.6623 19.8364 12.3386 19.8364 9.70909C19.8364 7.07954 19.8364 6.75591 19.7959 5.70409C19.7555 4.65227 19.5937 3.96454 19.3509 3.35773C19.0678 2.71045 18.7441 2.18454 18.2182 1.61818C17.6923 1.09227 17.1259 0.728182 16.4787 0.485454C15.8718 0.242727 15.1437 0.0809091 14.1323 0.0404545C13.0805 0 12.7568 0 10.1273 0Z" fill="#162666"/>
<path d="M10.1273 4.73315C7.37637 4.73315 5.15137 6.95815 5.15137 9.70906C5.15137 12.46 7.37637 14.685 10.1273 14.685C12.8782 14.685 15.1032 12.46 15.1032 9.70906C15.1032 6.95815 12.8782 4.73315 10.1273 4.73315ZM10.1273 12.9454C8.34728 12.9454 6.89091 11.4891 6.89091 9.70906C6.89091 7.92906 8.34728 6.4727 10.1273 6.4727C11.9073 6.4727 13.3636 7.92906 13.3636 9.70906C13.3636 11.4891 11.9073 12.9454 10.1273 12.9454Z" fill="#162666"/>
<path d="M15.3055 5.70403C15.9534 5.70403 16.4787 5.17878 16.4787 4.53085C16.4787 3.88292 15.9534 3.35767 15.3055 3.35767C14.6576 3.35767 14.1323 3.88292 14.1323 4.53085C14.1323 5.17878 14.6576 5.70403 15.3055 5.70403Z" fill="#162666"/>
</g>
<defs>
<clipPath id="clip0_401_1058">
<rect width="19.4182" height="19.4182" fill="white" transform="translate(0.418213)"/>
</clipPath>
</defs>
</svg>
