<svg width="21" height="21" viewBox="0 0 21 21" fill="none" xmlns="http://www.w3.org/2000/svg">
<g clip-path="url(#clip0_401_777)">
<path d="M17.2178 17.4054H14.3406V12.8996C14.3406 11.8252 14.3215 10.442 12.8442 10.442C11.3457 10.442 11.1164 11.6127 11.1164 12.8214V17.4051H8.23926V8.13941H11.0013V9.40566H11.04C11.3164 8.93304 11.7158 8.54424 12.1958 8.28067C12.6757 8.01709 13.2181 7.88862 13.7652 7.90893C16.6813 7.90893 17.219 9.82704 17.219 12.3224L17.2178 17.4054ZM4.99285 6.87285C4.66263 6.87291 4.3398 6.77505 4.06519 6.59163C3.79058 6.40822 3.57654 6.14749 3.45011 5.84242C3.32368 5.53736 3.29056 5.20165 3.35492 4.87776C3.41929 4.55386 3.57825 4.25633 3.81171 4.02278C4.04518 3.78924 4.34265 3.63016 4.66652 3.56568C4.99039 3.5012 5.32611 3.5342 5.63123 3.66052C5.93634 3.78684 6.19714 4.0008 6.38065 4.27534C6.56417 4.54988 6.66215 4.87267 6.66221 5.2029C6.66225 5.42216 6.6191 5.63928 6.53523 5.84187C6.45136 6.04446 6.3284 6.22854 6.17339 6.38361C6.01838 6.53868 5.83434 6.6617 5.63178 6.74564C5.42922 6.82959 5.21212 6.87281 4.99285 6.87285ZM6.43143 17.4054H3.55127V8.13941H6.43143V17.4054ZM18.6522 0.861674H2.1055C1.72993 0.857436 1.36805 1.00247 1.09937 1.26492C0.830686 1.52736 0.677191 1.88574 0.672607 2.2613V18.8766C0.677034 19.2524 0.830435 19.611 1.09911 19.8737C1.36778 20.1364 1.72975 20.2817 2.1055 20.2777H18.6522C19.0287 20.2825 19.3917 20.1376 19.6614 19.8749C19.9311 19.6121 20.0856 19.2531 20.0908 18.8766V2.2601C20.0854 1.88379 19.9309 1.52501 19.6611 1.26257C19.3914 1.00014 19.0285 0.855512 18.6522 0.860475V0.861674Z" fill="#162666"/>
</g>
<defs>
<clipPath id="clip0_401_777">
<rect width="19.4182" height="19.4182" fill="white" transform="translate(0.672607 0.860352)"/>
</clipPath>
</defs>
</svg>
