<svg width="21" height="21" viewBox="0 0 21 21" fill="none" xmlns="http://www.w3.org/2000/svg">
<g clip-path="url(#clip0_401_775)">
<path d="M10.5455 0.860352C5.18354 0.860352 0.836426 5.20747 0.836426 10.5694C0.836426 14.6848 3.39355 18.2009 7.00549 19.6153C6.91759 18.8481 6.84567 17.6655 7.03746 16.8264C7.21326 16.0673 8.17218 11.9998 8.17218 11.9998C8.17218 11.9998 7.8845 11.4165 7.8845 10.5614C7.8845 9.21097 8.66762 8.2041 9.64253 8.2041C10.4736 8.2041 10.8731 8.8274 10.8731 9.57056C10.8731 10.4016 10.3457 11.6482 10.0661 12.8069C9.83431 13.7738 10.5535 14.5649 11.5044 14.5649C13.2305 14.5649 14.557 12.743 14.557 10.1219C14.557 7.79656 12.8869 6.17438 10.4976 6.17438C7.73267 6.17438 6.1105 8.24405 6.1105 10.3856C6.1105 11.2167 6.43014 12.1117 6.82969 12.5992C6.9096 12.695 6.91759 12.783 6.89362 12.8788C6.8217 13.1825 6.65389 13.8458 6.62192 13.9816C6.58197 14.1574 6.47809 14.1974 6.29429 14.1095C5.07966 13.5421 4.32051 11.7761 4.32051 10.3457C4.32051 7.28513 6.54201 4.47229 10.7373 4.47229C14.1015 4.47229 16.7226 6.8696 16.7226 10.082C16.7226 13.4302 14.6129 16.1232 11.6882 16.1232C10.7053 16.1232 9.77837 15.6118 9.46673 15.0045C9.46673 15.0045 8.97927 16.8584 8.85941 17.3139C8.64365 18.1609 8.05232 19.2157 7.65276 19.863C8.56374 20.1427 9.52266 20.2945 10.5295 20.2945C15.8915 20.2945 20.2386 15.9474 20.2386 10.5854C20.2546 5.20747 15.9075 0.860352 10.5455 0.860352Z" fill="#162666"/>
</g>
<defs>
<clipPath id="clip0_401_775">
<rect width="19.4182" height="19.4182" fill="white" transform="translate(0.836426 0.860352)"/>
</clipPath>
</defs>
</svg>
