<svg width="20" height="21" viewBox="0 0 20 21" fill="none" xmlns="http://www.w3.org/2000/svg">
<g clip-path="url(#clip0_401_776)">
<path d="M19.268 5.83623C19.0253 4.98668 18.378 4.33941 17.5689 4.09668C16.0317 3.69214 9.96348 3.69214 9.96348 3.69214C9.96348 3.69214 3.8953 3.69214 2.35803 4.09668C1.54894 4.33941 0.901667 4.98668 0.65894 5.83623C0.254395 7.33305 0.254395 10.529 0.254395 10.529C0.254395 10.529 0.254395 13.7249 0.65894 15.2217C0.901667 16.0712 1.54894 16.7185 2.35803 16.9612C3.85485 17.3658 9.96348 17.3658 9.96348 17.3658C9.96348 17.3658 16.0317 17.3658 17.5689 16.9612C18.4185 16.7185 19.0658 16.0712 19.268 15.2217C19.6726 13.6844 19.6726 10.529 19.6726 10.529C19.6726 10.529 19.6726 7.33305 19.268 5.83623Z" fill="#162666"/>
<path d="M7.9812 13.4013L13.038 10.529L7.9812 7.65674V13.4013Z" fill="white"/>
</g>
<defs>
<clipPath id="clip0_401_776">
<rect width="19.4182" height="19.4182" fill="white" transform="translate(0.254395 0.860352)"/>
</clipPath>
</defs>
</svg>
