<svg width="43" height="43" viewBox="0 0 43 43" fill="none" xmlns="http://www.w3.org/2000/svg">
<g clip-path="url(#clip0_401_804)">
<path d="M30.5701 3.3606C33.1101 2.9706 37.0301 1.7506 39.5701 1.3606L39.1801 1.77057C38.8879 2.0631 38.5502 2.3063 38.1801 2.4906L32.3301 5.6106" stroke="#85724D" stroke-linecap="round" stroke-linejoin="round"/>
<path d="M35.24 5.6106C35.3 8.1506 35.36 12.7906 35.41 15.3306" stroke="#85724D" stroke-linecap="round" stroke-linejoin="round"/>
<path d="M22.0699 3.88062C21.9115 4.08313 21.7021 4.23983 21.4631 4.33472C21.2241 4.42961 20.9642 4.45925 20.71 4.42059V4.70062C21.3187 6.28084 22.5157 7.56386 24.05 8.28058" stroke="#85724D" stroke-linecap="round" stroke-linejoin="round"/>
<path d="M19.5699 13.3606C18.0973 10.5856 15.8072 8.33041 13.0099 6.9006C10.3016 5.74027 7.28721 5.50137 4.42993 6.22061" stroke="#85724D" stroke-linecap="round" stroke-linejoin="round"/>
<path d="M19.3 14.3607C22.0992 12.5825 24.1596 9.8507 25.1 6.67065V6.31067C24.3696 5.90977 23.7275 5.36574 23.2121 4.71112C22.6966 4.0565 22.3184 3.30473 22.1 2.50067L22.19 2.18066C22.6577 2.55859 23.1986 2.83549 23.7786 2.99384C24.3586 3.15218 24.9652 3.18853 25.56 3.10065C26.7444 2.91987 27.9423 2.84293 29.14 2.87067C29.7448 2.89918 30.3281 3.10359 30.8184 3.45886C31.3087 3.81413 31.6846 4.30482 31.9 4.87067C32.0561 5.60305 31.9197 6.36743 31.52 7.00067C31.1253 7.62565 30.6476 8.19417 30.1 8.69067L28.42 10.5306C25.9308 13.255 23.9465 16.4008 22.56 19.8207C21.9286 21.6755 21.1667 23.4834 20.28 25.2307C19.3776 26.9938 17.8135 28.3278 15.93 28.9407C14.29 29.3607 12.58 28.9407 10.93 28.9407C9.05771 28.9378 7.21299 29.3916 5.55579 30.2629C3.89859 31.1342 2.47897 32.3966 1.42002 33.9407L1.22001 32.2307C1.20474 30.7474 1.52198 29.2795 2.14841 27.9349C2.77485 26.5903 3.69457 25.4032 4.84 24.4606C5.96 23.5606 7.35003 23.0507 8.46003 22.1407C9.70667 21.1566 10.7036 19.8924 11.37 18.4507C10.7175 18.5976 10.0405 18.5976 9.38795 18.4506C8.73543 18.3036 8.12377 18.0133 7.5973 17.6007C7.07082 17.1881 6.64272 16.6637 6.34397 16.0652C6.04522 15.4668 5.88332 14.8094 5.87 14.1407" stroke="#85724D" stroke-linecap="round" stroke-linejoin="round"/>
<path d="M4.32 6.29053C4.28156 6.90771 4.42739 7.52238 4.73898 8.05652C5.05056 8.59066 5.51384 9.02019 6.07 9.29053C7.19608 9.816 8.41785 10.1053 9.66 10.1406" stroke="#85724D" stroke-linecap="round" stroke-linejoin="round"/>
<path d="M4.91996 9.50049C4.79766 10.1619 4.83522 10.8429 5.02952 11.4868C5.22381 12.1307 5.56919 12.7189 6.0369 13.2023C6.50461 13.6856 7.08108 14.0502 7.71827 14.2656C8.35545 14.481 9.0349 14.541 9.69996 14.4405" stroke="#85724D" stroke-linecap="round" stroke-linejoin="round"/>
<path d="M13.4201 24.2505C11.1224 28.7996 8.23041 33.0232 4.82007 36.8105" stroke="#85724D" stroke-linecap="round" stroke-linejoin="round"/>
<path d="M4.81989 36.7104C4.29768 38.418 3.55829 40.0514 2.61987 41.5705" stroke="#85724D" stroke-linecap="round" stroke-linejoin="round"/>
<path d="M0.5 38.9406C1.42 38.4506 4.65001 36.8506 5.57001 36.3606" stroke="#85724D" stroke-linecap="round" stroke-linejoin="round"/>
<path d="M15.1799 12.9106C15.8903 13.5433 16.412 14.3601 16.6873 15.2708C16.9626 16.1814 16.9809 17.1504 16.74 18.0707" stroke="#85724D" stroke-linecap="round" stroke-linejoin="round"/>
<path d="M41.6801 16.1106H28.9601C28.6066 16.1106 28.3201 16.3971 28.3201 16.7506V24.4706C28.3201 24.8241 28.6066 25.1106 28.9601 25.1106H41.6801C42.0335 25.1106 42.3201 24.8241 42.3201 24.4706V16.7506C42.3201 16.3971 42.0335 16.1106 41.6801 16.1106Z" stroke="#85724D" stroke-linecap="round" stroke-linejoin="round"/>
<path d="M28.8201 16.6106L41.8201 24.6106" stroke="#85724D" stroke-linecap="round" stroke-linejoin="round"/>
<path d="M41.8201 16.6106L28.8201 24.6106" stroke="#85724D" stroke-linecap="round" stroke-linejoin="round"/>
</g>
<defs>
<clipPath id="clip0_401_804">
<rect width="42.82" height="41.21" fill="white" transform="translate(0 0.860596)"/>
</clipPath>
</defs>
</svg>
