<svg width="61" height="36" viewBox="0 0 61 36" fill="none" xmlns="http://www.w3.org/2000/svg">
<g clip-path="url(#clip0_401_787)">
<path d="M42.5599 22.1707L43.0399 34.5607C43.0439 34.6722 43.0255 34.7833 42.9856 34.8875C42.9457 34.9917 42.8851 35.0868 42.8077 35.1671C42.7302 35.2473 42.6373 35.3112 42.5346 35.3547C42.4319 35.3983 42.3215 35.4207 42.2099 35.4207H17.9299C17.8184 35.4207 17.7079 35.3983 17.6052 35.3547C17.5025 35.3112 17.4096 35.2473 17.3321 35.1671C17.2547 35.0868 17.1942 34.9917 17.1543 34.8875C17.1144 34.7833 17.0959 34.6722 17.0999 34.5607L17.5799 22.1707" stroke="#85724D" stroke-linecap="round" stroke-linejoin="round"/>
<path d="M43.89 21.6605H16.2599C16.123 21.6587 15.9908 21.6101 15.8853 21.5228C15.7798 21.4355 15.7073 21.3147 15.68 21.1805L14.68 15.7205C14.6637 15.6365 14.6663 15.55 14.6874 15.4671C14.7086 15.3842 14.7478 15.3071 14.8023 15.2412C14.8568 15.1752 14.9251 15.1221 15.0025 15.0857C15.0799 15.0493 15.1644 15.0304 15.2499 15.0305H44.9499C45.0355 15.0304 45.12 15.0493 45.1974 15.0857C45.2748 15.1221 45.3432 15.1752 45.3976 15.2412C45.4521 15.3071 45.4913 15.3842 45.5125 15.4671C45.5336 15.55 45.5362 15.6365 45.52 15.7205L44.52 21.1805C44.4953 21.3255 44.4166 21.4557 44.2996 21.5448C44.1827 21.6339 44.0362 21.6753 43.89 21.6605V21.6605Z" stroke="#85724D" stroke-linecap="round" stroke-linejoin="round"/>
<path d="M27.27 15.5405V21.1505" stroke="#85724D" stroke-linecap="round" stroke-linejoin="round"/>
<path d="M32.8799 15.5405V21.1505" stroke="#85724D" stroke-linecap="round" stroke-linejoin="round"/>
<path d="M28.29 21.6606V34.9106" stroke="#85724D" stroke-linecap="round" stroke-linejoin="round"/>
<path d="M31.8601 21.6606V34.9106" stroke="#85724D" stroke-linecap="round" stroke-linejoin="round"/>
<path d="M29.6899 14.6807C28.628 14.7229 27.5689 14.5449 26.5792 14.1578C25.5895 13.7707 24.6906 13.1829 23.9391 12.4315C23.1877 11.68 22.5999 10.7811 22.2128 9.79138C21.8257 8.80166 21.6477 7.74255 21.6899 6.68066" stroke="#85724D" stroke-linecap="round" stroke-linejoin="round"/>
<path d="M21.78 6.67051C22.8431 6.6237 23.9042 6.79859 24.896 7.18406C25.8878 7.56954 26.7886 8.15717 27.541 8.90959C28.2934 9.662 28.881 10.5627 29.2665 11.5545C29.652 12.5463 29.8268 13.6075 29.78 14.6705" stroke="#85724D" stroke-linecap="round" stroke-linejoin="round"/>
<path d="M30.45 14.6807C31.5118 14.7229 32.571 14.5449 33.5607 14.1578C34.5504 13.7707 35.4493 13.1829 36.2007 12.4315C36.9522 11.68 37.54 10.7811 37.9271 9.79138C38.3142 8.80166 38.4922 7.74255 38.45 6.68066" stroke="#85724D" stroke-linecap="round" stroke-linejoin="round"/>
<path d="M38.36 6.67051C37.2969 6.6237 36.2358 6.79859 35.244 7.18406C34.2522 7.56954 33.3514 8.15717 32.599 8.90959C31.8466 9.662 31.259 10.5627 30.8735 11.5545C30.488 12.5463 30.3132 13.6075 30.36 14.6705" stroke="#85724D" stroke-linecap="round" stroke-linejoin="round"/>
<path d="M52.26 26.8506L57.79 28.7006" stroke="#85724D" stroke-linecap="round" stroke-linejoin="round"/>
<path d="M51.73 1.3606L47.5 5.3706" stroke="#85724D" stroke-linecap="round" stroke-linejoin="round"/>
<path d="M54.76 15.0307L59.64 13.9507" stroke="#85724D" stroke-linecap="round" stroke-linejoin="round"/>
<path d="M7.8801 26.8506L2.3501 28.7006" stroke="#85724D" stroke-linecap="round" stroke-linejoin="round"/>
<path d="M8.40991 1.3606L12.6399 5.3706" stroke="#85724D" stroke-linecap="round" stroke-linejoin="round"/>
<path d="M5.38 15.0307L0.5 13.9507" stroke="#85724D" stroke-linecap="round" stroke-linejoin="round"/>
</g>
<defs>
<clipPath id="clip0_401_787">
<rect width="60.14" height="35.06" fill="white" transform="translate(0 0.860596)"/>
</clipPath>
</defs>
</svg>
