<svg width="133" height="19" viewBox="0 0 133 19" fill="none" xmlns="http://www.w3.org/2000/svg">
<g clip-path="url(#clip0_73_206)">
<path d="M23.1094 7.66205C21.3313 3.55312 19.3359 1.7071 17.1824 1.3498V17.7061H19.3161V18.0832H9.83293V17.7061H11.9666V1.40935C9.8526 1.6674 7.87693 3.61267 6.03955 7.72159V1.01233H23.1094V7.66205Z" fill="#162666"/>
<path d="M33.9359 15.9395C33.4145 16.7205 32.6991 17.3511 31.8605 17.7689C31.0219 18.1867 30.0892 18.3771 29.1548 18.3214C28.3617 18.3453 27.5717 18.209 26.832 17.9205C26.0923 17.6319 25.4177 17.1971 24.8484 16.6417C24.279 16.0864 23.8265 15.4218 23.5176 14.6874C23.2087 13.953 23.0496 13.1637 23.05 12.3665C22.9912 11.5331 23.1078 10.6967 23.3918 9.91152C23.6759 9.12634 24.1211 8.41002 24.6987 7.80907C25.2764 7.20812 25.9735 6.73596 26.7446 6.42337C27.5157 6.11078 28.3436 5.96473 29.1746 5.99467C31.4071 5.99467 32.9283 7.30478 32.9283 9.05157C32.9283 10.7984 31.4269 12.7635 28.5819 13.8354C29.7911 15.1437 31.4517 15.9389 33.2247 16.0586C33.4548 16.0789 33.6861 16.0789 33.9162 16.0586L33.9359 15.9395ZM26.0332 8.17817C26.1375 10.2425 27.0122 12.1916 28.4831 13.6369C29.1282 12.7615 29.4496 11.6876 29.3919 10.5999C29.3919 8.61487 28.0287 6.76884 27.0013 6.76884C26.3493 6.76884 25.9938 7.36432 25.9938 8.17817H26.0332Z" fill="#162666"/>
<path d="M34.7661 17.7061L35.4971 13.7361L38.4211 17.7061C38.6786 17.7757 38.9447 17.8091 39.2114 17.8053C40.2585 17.8053 40.9696 17.2694 40.9696 16.2967C40.9696 15.3241 40.535 15.1653 39.5472 14.6492L37.9667 13.8155C35.991 12.7635 35.0624 11.6519 35.0624 9.84553C35.0624 7.4437 37.0381 5.87556 40.1597 5.87556C41.5075 5.86768 42.8459 6.10301 44.111 6.57032L43.1824 10.3418L40.4363 6.3718C40.2994 6.34346 40.1582 6.34346 40.0214 6.3718C38.994 6.3718 38.4606 6.96733 38.4606 7.64223C38.4606 8.31712 38.8359 9.07141 40.2386 9.80585L42.0168 10.7586C42.7306 11.0437 43.3461 11.5316 43.7882 12.1627C44.2303 12.7937 44.4798 13.5405 44.5062 14.3118C44.5062 16.7731 42.0167 18.2817 39.1125 18.2817C37.6438 18.2989 36.1802 18.1051 34.7661 17.7061V17.7061Z" fill="#162666"/>
<path d="M55.3723 15.8997C54.8751 16.6698 54.188 17.2976 53.3779 17.722C52.5678 18.1463 51.6622 18.3528 50.7492 18.3214C47.9239 18.3214 46.7978 16.6541 46.7978 13.5575V6.80853H44.9604L51.5395 1.62769V6.45125H54.8784V6.84821H51.5593V12.3863C51.5593 15.1455 52.1914 16.1777 53.9497 16.1777C54.423 16.1824 54.8927 16.0948 55.3327 15.9196L55.3723 15.8997Z" fill="#162666"/>
<path d="M75.5242 17.7061V18.0832H69.5972V16.1975C68.5499 17.4204 67.0677 18.1827 65.468 18.3214C63.0576 18.3214 61.2598 16.3364 61.2598 12.6841C61.2598 9.03169 63.4923 5.93512 66.7522 5.93512C67.7706 5.92344 68.7666 6.23616 69.5972 6.82839V3.53331L68.234 2.38198L74.3387 0.23822V17.7061H75.5242ZM69.5972 15.8799V7.22535C69.2558 6.98582 68.8478 6.86078 68.4315 6.86807C67.2066 6.86807 66.3175 8.37664 66.3175 11.3144C66.3175 14.2522 67.009 16.1181 68.5896 16.1181C68.938 16.1077 69.2807 16.0267 69.5972 15.8799V15.8799Z" fill="#162666"/>
<path d="M79.2184 4.8434C78.6477 4.77107 78.125 4.48574 77.7539 4.04408C77.3829 3.60243 77.1906 3.03674 77.2155 2.45933C77.2404 1.88192 77.4805 1.33501 77.8881 0.927217C78.2958 0.519426 78.8412 0.28059 79.416 0.258083C79.733 0.249618 80.0484 0.306776 80.3424 0.426003C80.6365 0.545229 80.903 0.72394 81.1254 0.951084C81.3478 1.17823 81.5212 1.44889 81.635 1.74628C81.7488 2.04367 81.8005 2.36146 81.7868 2.67977C81.7169 3.83238 81.2644 4.92813 80.5015 5.79179C79.7386 6.65546 78.7094 7.23712 77.5786 7.44373C78.4226 6.80692 79.0058 5.88212 79.2184 4.8434V4.8434Z" fill="#162666"/>
<path d="M83.2095 17.7061H84.395V9.01182L83.0317 7.84069L89.1365 5.69693V17.6069H90.322V17.984H83.2095V17.7061ZM84.1183 2.64003C84.1183 2.11396 84.2736 1.59973 84.5645 1.16232C84.8554 0.724902 85.2689 0.383926 85.7526 0.182606C86.2364 -0.0187145 86.7687 -0.0713478 87.2823 0.0312843C87.7958 0.133916 88.2675 0.387247 88.6378 0.759238C89.008 1.13123 89.2601 1.60516 89.3622 2.12113C89.4644 2.6371 89.412 3.17188 89.2116 3.65791C89.0112 4.14394 88.6719 4.55937 88.2366 4.85164C87.8012 5.14391 87.2893 5.29991 86.7657 5.29991C86.4104 5.33007 86.053 5.28195 85.7181 5.15895C85.3833 5.03594 85.0792 4.84104 84.8271 4.58776C84.575 4.33449 84.381 4.02896 84.2586 3.69256C84.1361 3.35615 84.0883 2.99695 84.1183 2.64003V2.64003Z" fill="#162666"/>
<path d="M105.89 17.706V18.0832H99.0149V17.706H99.9633V10.5403C99.9633 8.67438 99.5088 8.05904 98.5407 8.05904C98.0465 8.07397 97.5614 8.19583 97.1183 8.41632V17.706H98.0666V18.0832H91.1913V17.706H92.3766V9.01179L91.0332 7.84066L97.1183 5.6969V8.07885C98.3032 6.79797 99.9111 5.99373 101.643 5.81599C103.618 5.81599 104.705 7.08636 104.705 9.50804V17.706H105.89Z" fill="#162666"/>
<path d="M116.302 15.8997C115.805 16.6698 115.118 17.2976 114.308 17.722C113.498 18.1463 112.592 18.3528 111.679 18.3214C108.854 18.3214 107.727 16.6541 107.727 13.5575V6.80853H105.89L112.449 1.62769V6.45125H115.808V6.84821H112.449V12.3863C112.449 15.1455 113.101 16.1777 114.86 16.1777C115.333 16.1824 115.803 16.0948 116.243 15.9196L116.302 15.8997Z" fill="#162666"/>
<path d="M127.524 15.9395C127.007 16.7248 126.292 17.3588 125.452 17.7771C124.613 18.1955 123.678 18.3832 122.743 18.3214C121.951 18.3426 121.163 18.2043 120.426 17.9145C119.689 17.6248 119.016 17.1895 118.449 16.6344C117.882 16.0793 117.431 15.4157 117.123 14.6826C116.816 13.9496 116.657 13.162 116.658 12.3665C116.599 11.5348 116.715 10.7002 116.998 9.91642C117.281 9.13266 117.724 8.41728 118.3 7.81664C118.875 7.21601 119.57 6.74347 120.339 6.42961C121.107 6.11576 121.933 5.96758 122.762 5.99467C124.995 5.99467 126.536 7.30478 126.536 9.05157C126.536 10.7984 125.015 12.7635 122.17 13.8354C123.385 15.1356 125.042 15.9291 126.813 16.0586C127.043 16.0789 127.274 16.0789 127.504 16.0586L127.524 15.9395ZM119.621 8.17817C119.718 10.2402 120.586 12.1896 122.051 13.6369C122.711 12.7681 123.04 11.691 122.98 10.5999C122.98 8.61487 121.597 6.76884 120.589 6.76884C119.918 6.76884 119.601 7.36432 119.601 8.17817H119.621ZM120.826 5.49842L121.656 0.496277H126.654L120.826 5.49842Z" fill="#162666"/>
</g>
<defs>
<clipPath id="clip0_73_206">
<rect width="121.405" height="18.3214" fill="white" transform="translate(6.13843)"/>
</clipPath>
</defs>
</svg>
