<svg width="195" height="28" viewBox="0 0 195 28" fill="none" xmlns="http://www.w3.org/2000/svg">
<g clip-path="url(#clip0_11_218)">
<path d="M33.8824 11.2914C31.2754 5.23618 28.3498 2.51573 25.1925 1.98918V26.0932H28.3209V26.649H14.4169V26.0932H17.5452V2.07694C14.4458 2.45722 11.5491 5.32394 8.85522 11.3792V1.49185H33.8824V11.2914Z" fill="white"/>
<path d="M49.756 23.4898C48.9915 24.6407 47.9427 25.5701 46.7132 26.1857C45.4836 26.8014 44.1161 27.0821 42.7462 27C41.5832 27.0352 40.4251 26.8343 39.3405 26.4091C38.2559 25.9839 37.2669 25.3431 36.4322 24.5247C35.5974 23.7062 34.9339 22.7269 34.481 21.6446C34.0281 20.5623 33.7949 19.3992 33.7954 18.2243C33.7093 16.9962 33.8801 15.7635 34.2966 14.6064C34.7131 13.4493 35.3658 12.3937 36.2127 11.5081C37.0596 10.6225 38.0817 9.92668 39.2123 9.46602C40.3429 9.00536 41.5568 8.79014 42.7751 8.83425C46.0484 8.83425 48.2787 10.7649 48.2787 13.3392C48.2787 15.9134 46.0774 18.8094 41.9062 20.389C43.6791 22.317 46.1138 23.4888 48.7133 23.6653C49.0506 23.6952 49.3897 23.6952 49.727 23.6653L49.756 23.4898ZM38.1694 12.052C38.3222 15.0943 39.6047 17.9666 41.7612 20.0965C42.7071 18.8064 43.1783 17.2238 43.0937 15.6208C43.0937 12.6956 41.095 9.97514 39.5887 9.97514C38.6328 9.97514 38.1116 10.8527 38.1116 12.052H38.1694Z" fill="white"/>
<path d="M50.9727 26.0932L52.0444 20.2427L56.3314 26.0932C56.7091 26.1958 57.0991 26.2451 57.4902 26.2395C59.0254 26.2395 60.068 25.4496 60.068 24.0163C60.068 22.5829 59.4309 22.3489 57.9825 21.5883L55.6652 20.3597C52.7686 18.8093 51.407 17.1712 51.407 14.5092C51.407 10.9697 54.3038 8.65873 58.8805 8.65873C60.8567 8.64713 62.8189 8.99392 64.6738 9.68258L63.3123 15.2405L59.2861 9.39004C59.0854 9.34826 58.8784 9.34826 58.6777 9.39004C57.1714 9.39004 56.3894 10.2677 56.3894 11.2622C56.3894 12.2568 56.9397 13.3684 58.9963 14.4507L61.6034 15.8548C62.6498 16.2749 63.5523 16.994 64.2005 17.9239C64.8487 18.8539 65.2146 19.9544 65.2532 21.091C65.2532 24.7183 61.6033 26.9415 57.3452 26.9415C55.1918 26.9669 53.046 26.6812 50.9727 26.0932Z" fill="white"/>
<path d="M81.1849 23.4312C80.456 24.566 79.4486 25.4912 78.2608 26.1165C77.0731 26.7419 75.7453 27.0462 74.4066 27C70.2644 27 68.6133 24.5428 68.6133 19.9794V10.0336H65.9194L75.5654 2.39865V9.50706H80.4607V10.0921H75.5944V18.2535C75.5944 22.3196 76.5212 23.8407 79.0992 23.8407C79.7931 23.8478 80.4818 23.7186 81.1269 23.4604L81.1849 23.4312Z" fill="white"/>
<path d="M110.731 26.0932V26.649H102.041V23.87C100.505 25.6721 98.3323 26.7956 95.9868 27C92.4529 27 89.8169 24.0747 89.8169 18.6923C89.8169 13.3098 93.0902 8.74648 97.8697 8.74648C99.3629 8.72926 100.823 9.19012 102.041 10.0629V5.20696L100.042 3.51027L108.993 0.351044V26.0932H110.731ZM102.041 23.402V10.6479C101.54 10.2949 100.942 10.1106 100.332 10.1213C98.5359 10.1213 97.2323 12.3445 97.2323 16.6739C97.2323 21.0032 98.2463 23.753 100.564 23.753C101.074 23.7376 101.577 23.6183 102.041 23.402Z" fill="white"/>
<path d="M116.148 7.13757C115.311 7.03098 114.544 6.6105 114 5.95964C113.456 5.30877 113.174 4.47513 113.211 3.62421C113.247 2.77329 113.599 1.96731 114.197 1.36636C114.795 0.765405 115.594 0.413435 116.437 0.380267C116.902 0.367792 117.364 0.452026 117.795 0.627727C118.227 0.803429 118.617 1.06679 118.943 1.40153C119.269 1.73627 119.524 2.13514 119.691 2.5734C119.857 3.01165 119.933 3.47998 119.913 3.94907C119.811 5.64765 119.147 7.26244 118.029 8.53521C116.91 9.80797 115.401 10.6652 113.743 10.9696C114.981 10.0312 115.836 8.66831 116.148 7.13757Z" fill="white"/>
<path d="M121.999 26.0931H123.737V13.2805L121.738 11.5547L130.689 8.39544V25.9469H132.427V26.5027H121.999V26.0931ZM123.331 3.89054C123.331 3.11527 123.559 2.35747 123.986 1.71286C124.412 1.06824 125.018 0.565752 125.728 0.269069C126.437 -0.027613 127.217 -0.105178 127.97 0.0460695C128.723 0.197317 129.415 0.570646 129.958 1.11884C130.5 1.66704 130.87 2.36547 131.02 3.12584C131.17 3.88621 131.093 4.67431 130.799 5.39057C130.505 6.10682 130.008 6.71903 129.369 7.14975C128.731 7.58047 127.981 7.81036 127.213 7.81036C126.692 7.8548 126.168 7.7839 125.677 7.60262C125.186 7.42135 124.74 7.13413 124.371 6.76088C124.001 6.38763 123.717 5.93738 123.537 5.44163C123.358 4.94588 123.287 4.41652 123.331 3.89054Z" fill="white"/>
<path d="M155.253 26.0931V26.6489H145.172V26.0931H146.563V15.533C146.563 12.7833 145.896 11.8765 144.477 11.8765C143.752 11.8985 143.041 12.0781 142.392 12.403V26.0931H143.782V26.6489H133.702V26.0931H135.439V13.2806L133.47 11.5547L142.392 8.39545V11.9057C144.129 10.0181 146.486 8.83288 149.025 8.57095C151.921 8.57095 153.515 10.4431 153.515 14.0119V26.0931H155.253Z" fill="white"/>
<path d="M170.518 23.4312C169.789 24.566 168.782 25.4912 167.594 26.1165C166.406 26.7419 165.079 27.0462 163.74 27C159.598 27 157.947 24.5428 157.947 19.9794V10.0336H155.253L164.869 2.39865V9.50706H169.794V10.0921H164.869V18.2535C164.869 22.3196 165.825 23.8407 168.403 23.8407C169.097 23.8478 169.786 23.7186 170.431 23.4604L170.518 23.4312Z" fill="white"/>
<path d="M186.971 23.4897C186.213 24.6471 185.165 25.5814 183.934 26.1979C182.703 26.8143 181.332 27.091 179.961 27C178.801 27.0312 177.646 26.8273 176.565 26.4003C175.483 25.9733 174.498 25.3319 173.666 24.5138C172.835 23.6958 172.174 22.7178 171.722 21.6375C171.271 20.5572 171.039 19.3966 171.039 18.2242C170.954 16.9987 171.124 15.7687 171.538 14.6136C171.953 13.4586 172.604 12.4044 173.447 11.5192C174.291 10.6341 175.309 9.93771 176.436 9.47519C177.564 9.01266 178.774 8.7943 179.99 8.83422C183.263 8.83422 185.523 10.7649 185.523 13.3391C185.523 15.9133 183.292 18.8093 179.121 20.389C180.903 22.305 183.333 23.4745 185.928 23.6652C186.266 23.6951 186.605 23.6951 186.942 23.6652L186.971 23.4897ZM175.384 12.052C175.527 15.0909 176.799 17.9636 178.947 20.0964C179.915 18.8161 180.398 17.2289 180.309 15.6208C180.309 12.6956 178.281 9.9751 176.804 9.9751C175.819 9.9751 175.356 10.8527 175.356 12.052H175.384ZM177.152 8.10291L178.368 0.731323H185.697L177.152 8.10291Z" fill="white"/>
</g>
<defs>
<clipPath id="clip0_11_218">
<rect width="178" height="27" fill="white" transform="translate(9)"/>
</clipPath>
</defs>
</svg>
