<svg width="43" height="30" viewBox="0 0 43 30" fill="none" xmlns="http://www.w3.org/2000/svg">
<g clip-path="url(#clip0_401_819)">
<path d="M40.38 1.3606H2.25C1.2835 1.3606 0.5 2.1441 0.5 3.1106V27.6106C0.5 28.5771 1.2835 29.3606 2.25 29.3606H40.38C41.3465 29.3606 42.13 28.5771 42.13 27.6106V3.1106C42.13 2.1441 41.3465 1.3606 40.38 1.3606Z" stroke="#85724D" stroke-linecap="round" stroke-linejoin="round"/>
<path d="M17.96 11.4406L1.27002 1.8606" stroke="#85724D" stroke-linecap="round" stroke-linejoin="round"/>
<path d="M41.3601 1.8606L24.5801 11.4906" stroke="#85724D" stroke-linecap="round" stroke-linejoin="round"/>
<path d="M21.3501 21.3606C24.3877 21.3606 26.8501 18.8982 26.8501 15.8606C26.8501 12.823 24.3877 10.3606 21.3501 10.3606C18.3125 10.3606 15.8501 12.823 15.8501 15.8606C15.8501 18.8982 18.3125 21.3606 21.3501 21.3606Z" stroke="#85724D" stroke-linecap="round" stroke-linejoin="round"/>
<path d="M19.5901 17.3206C19.7077 17.6939 19.9413 18.02 20.2569 18.2515C20.5725 18.483 20.9537 18.6077 21.3451 18.6077C21.7365 18.6077 22.1177 18.483 22.4333 18.2515C22.7489 18.02 22.9825 17.6939 23.1001 17.3206" stroke="#85724D" stroke-linecap="round" stroke-linejoin="round"/>
<path d="M19.3799 14.8606C19.7941 14.8606 20.1299 14.5248 20.1299 14.1106C20.1299 13.6964 19.7941 13.3606 19.3799 13.3606C18.9657 13.3606 18.6299 13.6964 18.6299 14.1106C18.6299 14.5248 18.9657 14.8606 19.3799 14.8606Z" fill="#85724D"/>
<path d="M23.3799 14.8606C23.7941 14.8606 24.1299 14.5248 24.1299 14.1106C24.1299 13.6964 23.7941 13.3606 23.3799 13.3606C22.9657 13.3606 22.6299 13.6964 22.6299 14.1106C22.6299 14.5248 22.9657 14.8606 23.3799 14.8606Z" fill="#85724D"/>
</g>
<defs>
<clipPath id="clip0_401_819">
<rect width="42.63" height="29" fill="white" transform="translate(0 0.860596)"/>
</clipPath>
</defs>
</svg>
